<svg width="127" height="31" viewBox="0 0 127 31" fill="none" xmlns="http://www.w3.org/2000/svg">
<path d="M16.9869 4.53225L19.0899 6.07786V6.4885C19.0899 7.4597 21.9263 7.78604 23.2205 7.78604C24.5147 7.78604 27.3494 7.4603 27.3494 6.4891V6.07846L28.7768 5.03079V6.78052C28.6665 6.86391 28.5824 6.97781 28.5346 7.10848C28.4868 7.23916 28.4774 7.38103 28.5074 7.51702C28.5374 7.65301 28.6057 7.77731 28.7039 7.87493C28.8021 7.97256 28.9261 8.03935 29.0609 8.06726C29.1958 8.09517 29.3358 8.08301 29.4639 8.03224C29.5921 7.98147 29.7031 7.89426 29.7834 7.78112C29.8638 7.66797 29.9101 7.53372 29.9168 7.39454C29.9235 7.25536 29.8903 7.11719 29.8212 6.99668C29.7729 6.91263 29.7086 6.83915 29.632 6.78052V4.16496C29.6295 4.09435 29.6098 4.02545 29.5747 3.96435C29.5397 3.90324 29.4903 3.8518 29.431 3.81454L23.446 0.0652151C23.3782 0.0225895 23.3 0 23.2202 0C23.1405 0 23.0623 0.0225895 22.9945 0.0652151L17.0124 3.81454C16.9528 3.85198 16.9032 3.9037 16.868 3.96513C16.8328 4.02656 16.8131 4.09582 16.8106 4.1668C16.808 4.23777 16.8228 4.30829 16.8535 4.37212C16.8843 4.43596 16.9301 4.49116 16.9869 4.53285V4.53225ZM26.4959 6.34941C26.1818 6.53546 24.918 6.92081 23.2205 6.92081C21.5231 6.92081 20.2586 6.53546 19.9446 6.34941V6.2037C19.9773 6.05618 20.9194 5.48117 23.2205 5.48117C25.5217 5.48117 26.4632 6.05799 26.4959 6.2037V6.34941ZM26.4959 5.16085C25.7637 4.81584 24.5671 4.61414 23.2205 4.61414C21.874 4.61414 20.6768 4.81584 19.9446 5.16085V4.47204C19.9779 4.32452 20.92 3.74951 23.2205 3.74951C25.5211 3.74951 26.4626 4.32633 26.4959 4.47204V5.16085ZM23.2205 0.946098L28.436 4.21434L27.3494 5.00912V4.47204C27.3494 3.30094 25.1244 2.88549 23.2193 2.88549C21.3143 2.88549 19.0887 3.30094 19.0887 4.47204V5.01032L18.0033 4.21313L23.2205 0.946098Z" fill="white"/>
<path d="M33.8536 8.87646H12.8789C11.8678 8.87646 10.9507 9.6592 10.9507 10.5256V22.7123C10.9454 22.7385 10.9427 22.7651 10.9423 22.7918C10.9427 22.8185 10.9455 22.8451 10.9507 22.8713V23.928C10.9507 25.14 11.7613 26.0191 12.8789 26.0191H20.7505L20.4644 27.2835H19.3272C19.0361 27.2803 18.7555 27.394 18.5469 27.5996C18.4599 27.686 18.3907 27.789 18.3433 27.9027C18.2959 28.0164 18.2713 28.1385 18.2709 28.2619V29.4728C18.2709 29.5857 18.3152 29.6941 18.3941 29.774C18.4729 29.8539 18.5799 29.8989 18.6914 29.8991L28.0369 29.9111C28.0922 29.9112 28.147 29.9002 28.1982 29.8788C28.2494 29.8574 28.2958 29.826 28.335 29.7865C28.3742 29.7469 28.4053 29.6998 28.4264 29.6481C28.4476 29.5963 28.4586 29.5408 28.4586 29.4848V28.2704C28.4586 27.7327 27.9863 27.2949 27.4064 27.2937H26.2627L25.9612 26.0203H33.8536C34.917 26.0203 35.7818 25.1815 35.7818 24.1501V10.7466C35.7818 9.7152 34.917 8.87646 33.8536 8.87646ZM27.4088 28.1463C27.5355 28.1463 27.6194 28.221 27.6194 28.2704V29.0531L19.1143 29.0423V28.2595C19.1149 28.248 19.1178 28.2367 19.1228 28.2264C19.1278 28.216 19.1348 28.2068 19.1435 28.1993C19.1924 28.1549 19.2562 28.131 19.3219 28.1325V28.1325L27.4088 28.1463ZM21.3304 27.2835L21.5683 26.2352H25.1487L25.3967 27.2835H21.3304ZM34.9396 24.1489C34.9396 24.7101 34.4525 25.1665 33.8536 25.1665H12.8789C12.2395 25.1665 11.7928 24.6571 11.7928 23.928V23.2181H34.9396V24.1489ZM34.9396 22.3655H11.7928V10.5256C11.7928 10.2119 12.2591 9.72905 12.8789 9.72905H33.8536C34.4525 9.72905 34.9396 10.1854 34.9396 10.7466V22.3655Z" fill="white"/>
<path d="M39.6222 11.1892C39.9273 11.586 40.2169 11.8805 40.5078 12.0858C40.7986 12.2911 41.1127 12.4958 41.4665 12.5614C41.4926 12.5662 41.5191 12.5687 41.5456 12.5687C41.6396 12.5683 41.7309 12.5372 41.8059 12.48C41.8809 12.4229 41.9357 12.3426 41.962 12.2514C42.0625 11.865 42.0519 11.4577 41.9316 11.0773C41.792 10.6341 41.5772 10.2188 41.297 9.85016C41.0079 9.49079 40.6632 9.18112 40.2764 8.93315C39.9077 8.73024 39.5461 8.62427 39.2279 8.62427H39.1874C39.0793 8.62727 38.9762 8.67083 38.898 8.74649C38.8199 8.82215 38.7723 8.92452 38.7645 9.0337C38.7499 9.39852 38.824 9.7614 38.9804 10.0904C39.1342 10.4894 39.3509 10.8605 39.6222 11.1892V11.1892ZM39.8399 9.69602C40.1344 9.88859 40.3971 10.1269 40.6184 10.4023C40.8314 10.6855 40.9947 11.0036 41.1014 11.3428C41.1121 11.3771 41.121 11.412 41.1287 11.4469C41.0889 11.4205 41.0496 11.3916 41.0098 11.3645C40.7897 11.2079 40.5607 10.9737 40.3014 10.6359C40.0827 10.372 39.9084 10.0734 39.7857 9.75201C39.7697 9.71589 39.7548 9.68157 39.7411 9.64604C39.775 9.6623 39.8072 9.67795 39.8393 9.69602H39.8399Z" fill="white"/>
<path d="M43.9384 20.906C44.6788 20.906 45.436 20.4466 46.02 19.6458C46.798 18.562 47.0692 16.8616 46.6647 15.5972C46.6397 15.519 46.5937 15.4495 46.5318 15.3963C46.4699 15.3431 46.3947 15.3085 46.3144 15.2961C45.8576 15.2257 45.3872 15.3967 44.9584 15.7778C44.5465 16.159 44.2062 16.6125 43.9538 17.1163C43.8723 17.2662 43.7962 17.4174 43.7242 17.5661C43.6862 17.0324 43.6079 16.5024 43.4899 15.9807L43.4471 15.7802C43.9687 15.6598 44.5331 15.2016 44.7966 14.1756C44.8961 13.6778 44.9009 13.1653 44.8109 12.6655C44.7122 12.2059 44.5297 11.7689 44.2726 11.377C44.2244 11.3067 44.157 11.2521 44.0786 11.22C44.0002 11.1879 43.9142 11.1797 43.8313 11.1964C43.1735 11.3253 42.6828 12.0213 42.5181 13.0629C42.4837 13.294 42.4638 13.5271 42.4586 13.7608C42.2796 13.5975 42.0795 13.4596 41.8638 13.3507C41.0782 12.9546 40.2235 13.0154 39.7073 13.4844C39.6457 13.5402 39.6011 13.6126 39.5788 13.6931C39.5565 13.7736 39.5573 13.8589 39.5812 13.939C39.6858 14.2841 39.8732 14.5977 40.1266 14.8518C40.3798 15.1438 40.6818 15.3883 41.0187 15.5743C41.4778 15.8579 41.9703 16.0133 42.3973 16.0133C42.4665 16.0134 42.5356 16.0091 42.6043 16.0006L42.643 16.1812C42.7214 16.5257 42.78 16.8745 42.8184 17.2259C42.8053 17.2121 42.7935 17.197 42.7804 17.1832C42.3539 16.7575 41.8912 16.4883 41.4065 16.3824C40.9654 16.2802 40.5042 16.3153 40.0831 16.4829C40.0039 16.5156 39.9359 16.5711 39.8875 16.6427C39.8392 16.7142 39.8127 16.7985 39.8113 16.8851C39.8 17.6197 40.1444 18.4452 40.8296 19.3309C41.1261 19.7353 41.4881 20.086 41.9001 20.3683C42.1336 20.5299 42.3945 20.6466 42.6697 20.7127C42.5619 21.2464 42.4203 21.7725 42.2457 22.2878C42.2237 22.2071 42.1993 22.1271 42.1713 22.047C41.6789 20.635 40.5845 20.0998 39.7965 20.0709C39.7107 20.067 39.6257 20.0892 39.5525 20.1346C39.4793 20.1799 39.4211 20.2465 39.3855 20.3255C39.034 21.0866 38.9995 22.1686 39.2891 23.3746C39.5568 24.4542 40.0439 25.249 40.6571 25.6403C40.3185 26.192 39.9522 26.7258 39.5598 27.2395C39.2184 27.6857 38.8627 28.1114 38.4725 28.5419C38.2043 28.8363 38.0419 29.0001 38.0372 29.0043C37.9964 29.045 37.9639 29.0935 37.9416 29.1469C37.9193 29.2004 37.9076 29.2577 37.9071 29.3157C37.9067 29.3737 37.9176 29.4313 37.9391 29.485C37.9607 29.5388 37.9925 29.5877 38.0327 29.629C38.0729 29.6703 38.1208 29.7032 38.1736 29.7258C38.2264 29.7484 38.283 29.7602 38.3403 29.7606C38.3976 29.7611 38.4544 29.75 38.5075 29.7282C38.5606 29.7064 38.609 29.6742 38.6498 29.6335C38.6498 29.6335 38.8282 29.4595 39.1155 29.1392C39.5223 28.6906 39.894 28.2457 40.2491 27.7808C40.6651 27.2373 41.0528 26.6722 41.4106 26.0877C41.7728 26.3372 42.2026 26.4665 42.6406 26.458C43.2038 26.458 43.8135 26.2714 44.3999 25.9203C45.6536 25.1809 46.6451 23.663 46.8116 22.2288C46.8211 22.1471 46.8078 22.0644 46.7733 21.99C46.7389 21.9155 46.6846 21.8523 46.6166 21.8073C46.3521 21.6368 46.0439 21.5488 45.7304 21.5544C44.9048 21.5544 44.0323 22.0837 43.4447 22.5269C43.2706 22.6593 43.1037 22.7952 42.9439 22.9345C43.1907 22.2575 43.3856 21.5622 43.5268 20.8548C43.6614 20.8886 43.7996 20.9058 43.9384 20.906V20.906ZM44.7228 17.53C44.9256 17.1209 45.1996 16.7524 45.5317 16.442C45.6438 16.3381 45.7741 16.2564 45.9159 16.2011C46.1009 17.1609 45.863 18.3603 45.3134 19.1237C44.8793 19.7228 44.3422 20.051 43.8747 20.0209C43.9556 19.267 44.25 18.3988 44.7228 17.53ZM41.4517 14.8072C41.1902 14.6628 40.9562 14.4724 40.7606 14.2449C40.6845 14.1686 40.6165 14.0844 40.5578 13.9938C40.8135 13.9246 41.1454 13.9733 41.4725 14.1377C41.8817 14.3488 42.2034 14.7003 42.3801 15.1294C42.1148 15.1233 41.7836 15.0089 41.4517 14.8072ZM42.3789 19.6301C42.0479 19.4021 41.7575 19.1189 41.5201 18.7926C41.0728 18.2146 40.7974 17.6775 40.7112 17.2187C40.8807 17.1982 41.0524 17.2068 41.2191 17.244C41.5451 17.3144 41.8549 17.4999 42.1582 17.8027C42.5817 18.2465 42.8321 18.9353 42.8333 19.5597C42.8256 19.6265 42.819 19.6933 42.8125 19.7614L42.8053 19.836C42.6538 19.7896 42.51 19.7201 42.3789 19.6301V19.6301ZM41.0954 24.8745C40.6916 24.6017 40.3365 23.9791 40.1343 23.1633C39.9345 22.33 39.9118 21.5647 40.0653 21.0017C40.531 21.1318 41.0645 21.5316 41.3482 22.342C41.6658 23.2452 41.4755 24.2344 41.0954 24.8745ZM43.9675 23.2337C44.7312 22.6569 45.4371 22.3733 45.8904 22.451C45.6525 23.5149 44.8793 24.6144 43.958 25.1605C43.2354 25.594 42.4818 25.6879 42.0119 25.4326C42.4003 24.68 43.0968 23.8942 43.9675 23.2337ZM43.3799 13.1954C43.4536 12.7306 43.5988 12.4127 43.7504 12.232C43.8394 12.4274 43.9081 12.6316 43.9556 12.8414C44.0225 13.2153 44.0199 13.5986 43.9479 13.9715C43.8325 14.4195 43.6374 14.7001 43.4411 14.8343C43.3123 14.2977 43.2914 13.7403 43.3799 13.1954Z" fill="white"/>
<path d="M5.40275 12.5675C5.42905 12.5673 5.4553 12.5651 5.48126 12.5608C5.83811 12.4952 6.15155 12.2935 6.43703 12.0876C6.7722 11.8377 7.06885 11.5388 7.31727 11.2007C7.58662 10.8767 7.80233 10.5107 7.95604 10.1169C8.12793 9.73455 8.20584 9.36004 8.18146 9.0331C8.17383 8.92423 8.12652 8.82211 8.04871 8.74656C7.9709 8.67101 7.86814 8.62743 7.76037 8.62427H7.71695C7.40054 8.62427 7.03893 8.73024 6.64639 8.94639C6.26512 9.19503 5.92559 9.5038 5.64065 9.861C5.36296 10.2276 5.15043 10.6404 5.01259 11.0809C4.89302 11.4596 4.88271 11.8651 4.98285 12.2496C5.00939 12.3414 5.06468 12.4221 5.1404 12.4794C5.21612 12.5368 5.30819 12.5677 5.40275 12.5675V12.5675ZM5.84584 11.3464C5.95086 11.0102 6.11177 10.6946 6.32165 10.4131C6.53995 10.1406 6.79831 9.90359 7.0877 9.71047C7.12814 9.68879 7.16799 9.66832 7.20665 9.65026C7.19039 9.6904 7.17255 9.73315 7.15312 9.77851C7.02995 10.0952 6.85658 10.3895 6.63984 10.6498C6.38886 10.9755 6.15987 11.2091 5.93565 11.3687C5.89818 11.3952 5.86071 11.4229 5.82146 11.4482C5.82919 11.4132 5.83811 11.3801 5.84763 11.3464H5.84584Z" fill="white"/>
<path d="M8.27542 28.4829C7.87931 28.0548 7.51711 27.6292 7.16798 27.1806C6.76713 26.6653 6.39235 26.1297 6.04508 25.576C6.72965 25.2219 7.27266 24.3898 7.56171 23.2247C7.85077 22.0205 7.81627 20.9397 7.46477 20.1787C7.42886 20.0997 7.37055 20.0333 7.29726 19.9879C7.22397 19.9426 7.13901 19.9203 7.05319 19.924C6.26633 19.9529 5.17197 20.4882 4.67892 21.8989C4.60938 22.0986 4.55743 22.3041 4.52368 22.5131C4.29175 21.8898 4.10568 21.25 3.96699 20.599C4.32027 20.556 4.6577 20.4257 4.94953 20.2196C5.3595 19.9396 5.72 19.5918 6.01593 19.1906C6.70645 18.2959 7.05081 17.4704 7.03892 16.7364C7.03811 16.6501 7.01226 16.5659 6.96457 16.4942C6.91688 16.4226 6.84946 16.3668 6.77068 16.3336C6.3499 16.1666 5.88924 16.1316 5.44854 16.2331C4.96321 16.339 4.50108 16.6082 4.06632 17.0405C3.9524 17.1612 3.84837 17.2911 3.75526 17.4289C3.78679 16.9372 3.85518 16.4487 3.95985 15.9675L3.99494 15.7929C4.14455 15.8401 4.30039 15.8639 4.45707 15.8634C4.88649 15.8634 5.37597 15.708 5.81788 15.4353C6.15414 15.2513 6.45606 15.0092 6.71002 14.72C6.97143 14.4609 7.16535 14.1402 7.27444 13.7867C7.29818 13.7066 7.29893 13.6214 7.2766 13.5409C7.25428 13.4604 7.2098 13.388 7.14836 13.3321C6.63151 12.8631 5.77327 12.8035 4.99295 13.1973C4.77513 13.3065 4.57287 13.4451 4.39165 13.6091C4.3867 13.3746 4.36683 13.1407 4.33217 12.9088C4.16802 11.8708 3.67794 11.1748 3.01954 11.0459C2.93659 11.0288 2.85048 11.0368 2.77199 11.0689C2.6935 11.101 2.6261 11.1559 2.57823 11.2266C2.31793 11.6242 2.13429 12.0682 2.037 12.5349C1.94892 13.0351 1.95639 13.5477 2.059 14.045C2.27669 14.8934 2.71324 15.3522 3.15336 15.5467C3.15336 15.5545 3.15336 15.5617 3.1486 15.5696L3.10697 15.7743C3.0187 16.1782 2.95474 16.5872 2.91546 16.999C2.9107 16.9911 2.90713 16.9833 2.90297 16.9749C2.64909 16.4679 2.30652 16.0118 1.89188 15.6286C1.46365 15.2486 0.991412 15.077 0.535827 15.1469C0.455693 15.1593 0.380549 15.194 0.318791 15.2472C0.257033 15.3004 0.211095 15.3699 0.186109 15.4479C-0.218922 16.7124 0.0522882 18.4145 0.832017 19.4977C1.41191 20.2973 2.16903 20.7567 2.90951 20.7567C2.97511 20.7567 3.04065 20.7526 3.10578 20.7447C3.23224 21.3521 3.39875 21.9504 3.60419 22.5353C3.53837 22.4823 3.47116 22.43 3.40256 22.3782C2.81613 21.935 1.94362 21.4064 1.11869 21.4064C0.805259 21.4008 0.497103 21.4885 0.2325 21.6587C0.164313 21.7035 0.109856 21.7667 0.0752795 21.8411C0.0407027 21.9156 0.0273828 21.9984 0.0368243 22.0801C0.202762 23.5144 1.19422 25.0305 2.4456 25.7699C3.03441 26.1233 3.64404 26.3117 4.20727 26.3117C4.58846 26.3169 4.96427 26.2204 5.29687 26.0318C5.6643 26.6177 6.06133 27.184 6.48639 27.7285C6.85038 28.1957 7.22746 28.6401 7.64022 29.0869C7.9376 29.4066 8.11603 29.5806 8.11603 29.5806C8.19997 29.6583 8.31057 29.6998 8.42429 29.6962C8.538 29.6927 8.64584 29.6443 8.72484 29.5614C8.80384 29.4785 8.84776 29.3677 8.84724 29.2525C8.84673 29.1373 8.80182 29.0269 8.72209 28.9448C8.71317 28.9399 8.54842 28.778 8.27542 28.4829ZM4.68308 17.6631C4.99414 17.353 5.30341 17.1675 5.62934 17.0971C5.73694 17.0729 5.84683 17.0606 5.95705 17.0604C6.0167 17.0606 6.07628 17.0644 6.13548 17.0718C6.04865 17.5306 5.77327 18.0689 5.32126 18.6535C5.08446 18.9766 4.79576 19.257 4.46718 19.4832C4.33314 19.576 4.18538 19.6465 4.02944 19.6922C3.94261 19.0046 4.20073 18.1688 4.68308 17.6631ZM5.37776 13.9902C5.58322 13.881 5.81072 13.8211 6.0427 13.815C6.12643 13.8146 6.20984 13.8256 6.29071 13.8475C6.22575 13.9454 6.15145 14.0365 6.06887 14.1197C5.87303 14.3435 5.63942 14.5303 5.37895 14.6712C5.06432 14.8645 4.73423 14.9771 4.46897 14.9807C4.64625 14.5517 4.96834 14.2005 5.37776 13.9896V13.9902ZM2.9101 19.8764C2.45095 19.8764 1.94957 19.5489 1.53562 18.9787C0.985465 18.2134 0.748156 17.0134 0.932531 16.0542C1.07465 16.1093 1.20521 16.191 1.31734 16.2951C1.65206 16.6081 1.92793 16.98 2.13156 17.3927C2.53005 18.1255 2.80007 18.8625 2.922 19.5308C2.93033 19.5946 2.93746 19.6597 2.94341 19.7241L2.95947 19.874C2.94341 19.8752 2.92676 19.8758 2.9101 19.8758V19.8764ZM3.40792 14.6881C3.21165 14.5556 3.01776 14.2792 2.90535 13.8451C2.83031 13.4727 2.82466 13.0894 2.88869 12.715C2.9373 12.4981 3.00724 12.2867 3.09745 12.084C3.25031 12.2646 3.39483 12.5843 3.46858 13.0473C3.55746 13.5926 3.53683 14.1504 3.40792 14.6875V14.6881ZM4.20787 25.4291C3.80105 25.4291 3.34547 25.2846 2.8881 25.0076C1.96682 24.4657 1.19422 23.365 0.9587 22.3011C1.40953 22.224 2.11729 22.507 2.88096 23.0838C3.75169 23.7462 4.44875 24.5289 4.83712 25.2815C4.64251 25.3822 4.42637 25.4327 4.20787 25.4285V25.4291ZM5.75424 24.7288C5.33434 24.0207 5.21896 22.9923 5.50266 22.1951C5.78636 21.3853 6.31986 20.9855 6.78496 20.8555C6.939 21.4184 6.9164 22.1831 6.71716 23.0134C6.51196 23.8323 6.1563 24.4555 5.75186 24.7282L5.75424 24.7288Z" fill="white"/>
<path d="M57.3371 14.9102H58.8947V16.9357C57.7647 17.5842 56.932 17.6649 56.1226 17.6649C54.2455 17.6649 52.4161 15.8977 52.4161 13.8331C52.4161 11.7684 54.2455 10.0019 56.1226 10.0019C57.0433 10.0019 57.9967 10.1054 59.3783 11.0327L60.676 9.08425C59.2236 8.03778 57.6796 7.5284 56.1226 7.52539C52.8603 7.52539 49.8289 9.93984 49.8289 13.8331C49.8289 17.7263 52.8621 20.1407 56.1226 20.1407C59.3616 20.1407 61.2333 18.1682 61.2333 18.1682V12.8595H57.3371V14.9102Z" fill="white"/>
<path d="M68.0142 7.83594H65.4204V17.2818V19.8365H67.941H73.3379V17.2818H68.0142V7.83594Z" fill="white"/>
<path d="M88.9663 13.8366C88.9663 10.3564 86.1627 7.53076 82.7101 7.53076C79.2575 7.53076 76.4532 10.3564 76.4532 13.8366C76.4532 17.3168 79.2569 20.1419 82.7101 20.1419C86.1633 20.1419 88.9663 17.3162 88.9663 13.8366ZM82.7101 17.6666C80.8437 17.6666 79.0226 15.9 79.0226 13.8366C79.0226 11.7732 80.8414 10.006 82.7101 10.006C84.5788 10.006 86.3976 11.7726 86.3976 13.8366C86.3976 15.9006 84.5782 17.6666 82.7125 17.6666H82.7101Z" fill="white"/>
<path d="M98.8952 12.4397C100.254 11.009 99.6256 7.83594 96.3669 7.83594H92.7912V19.8366H97.6718C101.463 19.8366 102.614 13.8113 98.8952 12.4397ZM95.3118 10.2444H96.3413C96.7261 10.2444 96.9956 10.7447 96.9956 11.1337C96.9956 11.5226 96.7255 11.9881 96.3413 11.9881H95.3124L95.3118 10.2444ZM95.3118 17.2824V14.243H97.0277C97.8728 14.243 98.5146 14.8692 98.5146 15.726C98.5146 16.5828 97.8728 17.3161 97.0277 17.2824H95.3118Z" fill="white"/>
<path d="M108.361 7.83594L104.042 19.8366H106.729L107.598 17.4227H111.812L112.681 19.8366H115.368L111.049 7.83594H108.361ZM108.51 14.8884L109.705 11.5684L110.9 14.8884H108.51Z" fill="white"/>
<path d="M121.676 17.2818V7.83594H119.083V17.2818V19.8365H121.603H127V17.2818H121.676Z" fill="white"/>
<path d="M52.3381 22.8669L49.8312 29.8387H51.1635L51.6988 28.3546H54.098L54.6333 29.8418H55.9679L53.4592 22.8669H52.3381ZM52.1549 27.0817L52.8972 25.0201L53.6377 27.0823L52.1549 27.0817Z" fill="white"/>
<path d="M65.49 23.975C66.1199 23.9714 66.7297 24.1985 67.2071 24.6144L67.445 24.8245L68.2687 23.8678L68.0308 23.6571C67.325 23.0404 66.4229 22.7028 65.4906 22.7063C63.3406 22.7063 61.7193 24.2718 61.7193 26.3533C61.7193 28.4348 63.34 30.0015 65.49 30.0015C66.4224 30.0048 67.3245 29.667 68.0302 29.0501L68.2682 28.84L67.4444 27.8826L67.2065 28.0934C66.7289 28.5089 66.1191 28.7358 65.4894 28.7322C63.9865 28.731 62.9754 27.7737 62.9754 26.3533C62.9754 24.9329 63.9865 23.975 65.49 23.975Z" fill="white"/>
<path d="M76.5311 22.8669L74.0219 29.8387H75.3565L75.8918 28.3546H78.291L78.8263 29.8418H80.1615L77.6517 22.87L76.5311 22.8669ZM76.3479 27.0817L77.0908 25.0201L77.8325 27.0817H76.3479Z" fill="white"/>
<path d="M88.277 22.8669H85.9117V29.8387H88.277C89.1824 29.8267 90.0467 29.4541 90.6827 28.8017C91.3188 28.1493 91.6754 27.2695 91.6754 26.3528C91.6754 25.4362 91.3188 24.5564 90.6827 23.904C90.0467 23.2516 89.1824 22.879 88.277 22.8669V22.8669ZM88.277 28.5695H87.1654V24.1368H88.277C88.8576 24.1368 89.4145 24.3703 89.8251 24.7859C90.2357 25.2016 90.4663 25.7653 90.4663 26.3531C90.4663 26.941 90.2357 27.5047 89.8251 27.9203C89.4145 28.336 88.8576 28.5695 88.277 28.5695V28.5695Z" fill="white"/>
<path d="M97.4726 29.8389H102.261V28.5696H98.7257V26.9873H102.156V25.718H98.7257V24.1363H102.261V22.8665H97.4726V29.8389Z" fill="white"/>
<path d="M111.554 25.9902L109.262 22.8665H108.013V29.8389H109.267V25.0021L111.554 28.118L113.841 25.0021V29.8389H115.095V22.8665H113.846L111.554 25.9902Z" fill="white"/>
<path d="M123.924 26.3033L122.246 22.8665H120.848L123.297 27.8832V29.8389H124.551V27.8832L127 22.8665H125.602L123.924 26.3033Z" fill="white"/>
</svg>
